<svg width="20" height="20" viewBox="0 0 20 20" fill="none" xmlns="http://www.w3.org/2000/svg">
<path fill-rule="evenodd" clip-rule="evenodd" d="M10 19C5.02944 19 1 14.9706 1 10C1 5.02944 5.02944 1 10 1C14.9706 1 19 5.02944 19 10C19 14.9706 14.9706 19 10 19ZM11 9V5C11 4.44772 10.5523 4 10 4C9.44771 4 9 4.44772 9 5V9H5C4.44772 9 4 9.44771 4 10C4 10.5523 4.44772 11 5 11H9V15C9 15.5523 9.44771 16 10 16C10.5523 16 11 15.5523 11 15V11H15C15.5523 11 16 10.5523 16 10C16 9.44771 15.5523 9 15 9H11Z" fill="#C4C4C4"/>
</svg>
