<svg width="21" height="21" viewBox="0 0 21 21" fill="none" xmlns="http://www.w3.org/2000/svg">
<path d="M8.53086 1.77141C9.33554 0.0761981 11.6605 0.076195 12.4652 1.77141L13.8559 4.70118C14.1755 5.37435 14.7932 5.84094 15.5077 5.94888L18.6174 6.41869C20.4167 6.69053 21.1352 8.98954 19.8332 10.3091L17.583 12.5896C17.0659 13.1136 16.83 13.8685 16.9521 14.6084L17.4833 17.8285C17.7906 19.6918 15.9097 21.1126 14.3003 20.2329L11.5189 18.7126C10.8798 18.3633 10.1163 18.3633 9.47722 18.7126L6.69581 20.2329C5.08644 21.1126 3.20547 19.6918 3.51283 17.8286L4.04404 14.6084C4.16609 13.8685 3.93016 13.1136 3.41313 12.5896L1.16292 10.3091C-0.139087 8.98954 0.579375 6.69053 2.37871 6.41869L5.48842 5.94888C6.20294 5.84094 6.82061 5.37435 7.14015 4.70118L8.53086 1.77141Z" stroke="#C4C4C4" stroke-linejoin="round"/>
</svg>
