<svg width="18" height="18" viewBox="0 0 18 18" fill="none" xmlns="http://www.w3.org/2000/svg">
<path d="M16.75 13.75C16.75 15.4069 15.4069 16.75 13.75 16.75C12.0931 16.75 10.75 15.4069 10.75 13.75C10.75 12.0931 12.0931 10.75 13.75 10.75C15.4069 10.75 16.75 12.0931 16.75 13.75Z" stroke="#434343" stroke-width="1.5"/>
<path d="M10.75 2.75C10.75 1.64543 11.6454 0.75 12.75 0.75H14.75C15.8546 0.75 16.75 1.64543 16.75 2.75V4.75C16.75 5.85457 15.8546 6.75 14.75 6.75H12.75C11.6454 6.75 10.75 5.85457 10.75 4.75V2.75Z" stroke="#434343" stroke-width="1.5"/>
<path d="M0.75 2.75C0.75 1.64543 1.64543 0.75 2.75 0.75H4.75C5.85457 0.75 6.75 1.64543 6.75 2.75V4.75C6.75 5.85457 5.85457 6.75 4.75 6.75H2.75C1.64543 6.75 0.75 5.85457 0.75 4.75V2.75Z" stroke="#434343" stroke-width="1.5"/>
<path d="M0.75 12.75C0.75 11.6454 1.64543 10.75 2.75 10.75H4.75C5.85457 10.75 6.75 11.6454 6.75 12.75V14.75C6.75 15.8546 5.85457 16.75 4.75 16.75H2.75C1.64543 16.75 0.75 15.8546 0.75 14.75V12.75Z" stroke="#434343" stroke-width="1.5"/>
</svg>
