<svg width="40" height="40" viewBox="0 0 40 40" fill="none" xmlns="http://www.w3.org/2000/svg">
<path d="M20 0.5C30.7696 0.5 39.5 9.23045 39.5 20C39.5 30.7696 30.7696 39.5 20 39.5C9.23045 39.5 0.5 30.7696 0.5 20C0.5 9.23045 9.23045 0.5 20 0.5Z" stroke="#D9DADB"/>
<path fill-rule="evenodd" clip-rule="evenodd" d="M27.1187 13.9469C26.2268 12.949 25.041 12.3999 23.7794 12.3999C22.5178 12.3999 21.459 12.949 20.5667 13.9469L20 14.8521L19.4333 13.9469C18.5413 12.949 17.4822 12.3999 16.2208 12.3999C14.9594 12.3999 13.7731 12.949 12.8812 13.9469C11.0396 16.0072 11.0396 19.3594 12.8812 21.4189L19.4799 27.7608C19.5878 27.882 19.7221 27.9561 19.8624 27.9847C19.9095 27.9951 19.9568 27.9999 20.0042 27.9999C20.1909 27.9999 20.3779 27.9203 20.5201 27.7608L27.1188 21.4189C28.9604 19.3594 28.9604 16.0072 27.1187 13.9469Z" fill="#BCBFC2"/>
</svg>
