<svg width="12" height="12" viewBox="0 0 12 12" fill="none" xmlns="http://www.w3.org/2000/svg">
<path d="M5.01641 1.63571C5.41875 0.788099 6.58125 0.788098 6.98359 1.6357L7.67895 3.10059C7.83872 3.43717 8.14755 3.67047 8.50481 3.72444L10.0597 3.95935C10.9593 4.09527 11.3186 5.24477 10.6676 5.90454L9.54246 7.0448C9.28394 7.30679 9.16598 7.68427 9.22701 8.05421L9.49261 9.66427C9.64629 10.5959 8.70581 11.3063 7.90112 10.8665L6.51041 10.1063C6.19087 9.93164 5.80913 9.93164 5.48959 10.1063L4.09888 10.8665C3.2942 11.3063 2.35371 10.5959 2.50739 9.66428L2.77299 8.05421C2.83402 7.68427 2.71606 7.30679 2.45754 7.0448L1.33244 5.90454C0.681433 5.24477 1.04066 4.09527 1.94033 3.95935L3.49519 3.72444C3.85244 3.67047 4.16128 3.43717 4.32105 3.10059L5.01641 1.63571Z" fill="#FFC000"/>
</svg>
